# xmcd
#
# Track frame offsets: 
#        150
#        13702
#        27963
#        43259
#        58747
#        74268
#        92346
#        114916
#        129561
#        144588
#        162019
#        181491
#
# Disc length: 2547 seconds
#
# Revision: 0
# Processed by: cddbd v1.5.2PL0 Copyright (c) Steve Scherf et al.
# Submitted via: ExactAudioCopy v0.95b4
#
DISCID=9e09f10c
DTITLE=Steve Morgan - Shadow Dancing
DYEAR=2003
DGENRE=Blues
TTITLE0=Running With A Heartache
TTITLE1=Aripeeka Bay
TTITLE2=Ode To Jeremy
TTITLE3=Just Go'in Home
TTITLE4=Shadow Dancing
TTITLE5=Which Way
TTITLE6=Miss You Dear
TTITLE7=Sweet Music
TTITLE8=Easier Now
TTITLE9=Ballad Of Forest Gump
TTITLE10=The World's Gone Crazy
TTITLE11=Stand And Deliver
EXTD=
EXTT0=
EXTT1=
EXTT2=
EXTT3=
EXTT4=
EXTT5=
EXTT6=
EXTT7=
EXTT8=
EXTT9=
EXTT10=
EXTT11=
PLAYORDER=
